<?xml version="1.0" encoding="UTF-8"?><svg id="a" xmlns="http://www.w3.org/2000/svg" viewBox="0 0 250 100"><path d="M93.4,45.74l1.11-5.21c-1.96,.29-4.09,.52-6.25,.6-2.32,0-3.23-1.14-2.81-3.42,.47-1.88,1.49-2.93,3.14-3.26,2.69-.27,5.17-.53,7.43-.82l.71-3.26c.16-.76,.6-1.47,1.29-2.03,.66-.56,1.7-.89,3.06-.98,1.17,.05,2.01,.31,2.55,.76,.54,.56,.78,1.27,.58,2.26l-.46,2.1c1.25-.16,2.39-.38,3.45-.6,.76-.23,1.54-.33,2.2-.38,1.25,0,1.97,.34,2.27,.94,.54,.67,.76,1.5,.54,2.48-.24,1.12-.82,1.95-1.65,2.37-2.23,.89-5.01,1.61-8.34,2.17l-1.35,6.3h5.89c1.14,0,1.88,.22,2.28,.65,.49,.33,.65,1.22,.35,2.53-.25,1.15-.59,1.96-1.01,2.4-.8,.76-1.83,1.07-3.06,1.07h-5.89l-.66,2.99c-.22,.98-.47,1.87-.62,2.59h6.19c1.34,0,2.25,.27,2.75,.76,.47,.45,.53,1.38,.25,2.73-.24,1.12-.7,1.92-1.28,2.5-.84,.76-1.93,1.17-3.27,1.17h-7.6c-.73,1.29-1.53,2.59-2.42,3.66-2.52,3.4-5.37,6.17-8.61,8.4-.9,.45-1.89,.67-3.03,.67-1.09-.09-1.95-.54-2.55-1.43-.33-.54-.46-1.25-.42-2.06,.21-.94,.69-1.83,1.41-2.59,1.44-1.21,2.97-2.55,4.64-4.02,.97-.89,1.79-1.79,2.53-2.63h-4.59c-1.25,0-2.14-.32-2.69-.9-.46-.49-.52-1.43-.24-2.77,.3-1.34,.77-2.19,1.43-2.73,.68-.49,1.68-.76,3.05-.76h6.84c.31-.8,.55-1.7,.73-2.59l.66-2.99h-5.92c-1,0-1.73-.27-2.18-.8-.58-.45-.68-1.34-.38-2.67,.27-1.26,.74-2.14,1.53-2.65,.51-.31,1.35-.53,2.46-.53h5.92Zm41.83-11.66c-.79,3.64-2.83,8.33-6.13,14.2,1.03,4.61,1.1,9.03,.2,13.19-.72,3.31-1.87,5.67-3.38,7.1-1.77,1.88-3.92,2.77-6.63,2.77-2.14,0-4.08-.31-5.73-1.02l-1.04,4.74c-.49,1.79-1.86,2.73-4.08,2.82-2.23-.09-3.21-1.03-2.94-2.82l9.02-41.64c.56-2.52,1.86-3.86,3.93-3.86h13.61c2.75,0,3.82,1.56,3.18,4.53Zm-16.78,29.98c1.23,0,2.19-.53,2.88-1.65,.49-.71,.92-1.87,1.28-3.53,.5-2.32,.23-4.96-.75-7.91-.23-.76-.23-1.52-.08-2.24,.14-.67,.37-1.23,.83-1.78,2.44-3.53,4.08-6.9,4.77-10.1,.04-.23-.09-.4-.36-.4h-6.15l-5.86,27.12c1.29,.31,2.42,.49,3.44,.49Z" fill="#fff"/><path d="M153.13,29.99c.23-.53,.54-1.04,.96-1.35,.53-.51,1.58-.77,2.88-.77s2.11,.26,2.44,.71c.31,.33,.44,.82,.42,1.41h7.29c.54,0,.97,.11,1.2,.33,.24,.22,.29,.66,.12,1.37-.11,.64-.32,1.08-.54,1.3-.44,.44-.92,.59-1.59,.59h-7.16l-.3,1.46h8.05c.54,0,.92,.18,1.19,.4,.23,.22,.28,.64,.12,1.35-.11,.66-.32,1.11-.55,1.33-.44,.42-.92,.59-1.59,.59h-9.4c.11,.11,.23,.22,.31,.27,.18,.26,.35,.59,.37,.97h7.78c.59,0,1.01,.18,1.19,.4,.23,.2,.34,.64,.18,1.3-.12,.64-.32,1.08-.55,1.3-.44,.44-.93,.66-1.6,.66h-7.61l-.29,1.41c3.49-.11,6.92-.22,10.28-.4,.4,0,.72,.22,1.08,.55,.11,.38,.12,.82,.03,1.36-.14,.55-.41,1.04-.73,1.35-.38,.35-.85,.48-1.4,.54-.23,0-.42,.07-.51,.07-.08,.15,0,.27-.02,.37-.09,.21-.32,.78-.67,1.54h16.78c2.03,0,2.84,.97,2.41,2.91l-1.66,7.69c-.4,2.04-1.7,3-3.67,3h-15.03c.35,.53,.52,1.15,.48,1.9h14.58c3.01,0,4.27,1.33,3.74,3.8l-.55,2.34c-.34,1.73-1.04,2.92-2.07,3.63-1.07,.7-2.39,1.05-4.16,1.05h-2.7c-.85,0-1.7-.05-2.66-.13-.98-.09-1.71-.26-2.28-.66-.45-.53-.58-1.01-.5-1.55,.06-.31,.2-.57,.43-.84,.52-.4,1.15-.66,1.94-.85,.75-.18,1.47-.22,2.19-.22h2.11c.46,0,.69-.04,.72-.22l.39-1.68c.01-.08-.15-.22-.41-.22h-11.7l-.81,3.8c-.2,.93-.65,1.72-1.27,2.34-.78,.89-1.89,1.33-3.2,1.33s-2.17-.44-2.61-1.24c-.43-.66-.51-1.51-.3-2.43l.8-3.8h-11.47c-.32,0-.48,.18-.54,.45l-.68,3.18c-.48,1.72-1.86,2.65-4.04,2.73-2.2-.09-3.16-1.01-2.91-2.73l1.12-5.13c.41-1.99,2.14-2.96,5.17-2.96h14.36c.33-.79,.71-1.46,1.33-1.9h-14.59c-2.06,0-2.83-.97-2.4-3l1.67-7.69c.4-1.94,1.62-2.91,3.67-2.91h11.2c.22-.44,.44-.93,.72-1.46-7.37,.41-13.29,.58-17.78,.58-.78,0-1.24-.17-1.43-.53-.2-.35-.2-.83-.05-1.59,.16-.66,.44-1.19,.84-1.52,.28-.22,.8-.38,1.52-.38,2.8-.06,5.52-.18,8.29-.29l.33-1.61h-7.15c-.54,0-.9-.18-1.1-.51-.3-.22-.36-.71-.17-1.46,.12-.66,.38-1.1,.77-1.37,.26-.22,.68-.33,1.31-.33h7.34c.2-.37,.53-.71,.79-.93,.11-.09,.31-.2,.51-.31h-9c-.54,0-.96-.18-1.17-.51-.27-.2-.33-.71-.19-1.41,.14-.64,.41-1.13,.82-1.41,.26-.22,.67-.33,1.32-.33h8l.3-1.46h-6.93c-.54,0-.92-.11-1.13-.44-.27-.26-.33-.75-.17-1.46,.12-.66,.4-1.15,.8-1.41,.25-.18,.68-.29,1.27-.29h7.05Zm21.86,29.81l.27-1.33h-26.46l-.28,1.33c-.12,.44,.08,.57,.53,.57h25.1c.45,0,.7-.13,.83-.57Zm.85-4.11l.23-1.01c.13-.45-.06-.66-.51-.66h-25.11c-.45,0-.72,.22-.83,.66l-.23,1.01h26.45Zm5.66-23.99l.2-.88c.32-1.57,1.65-2.45,3.78-2.56,2.06,0,2.99,.89,2.7,2.56l-.2,.88h3.47c.76,0,1.32,.16,1.67,.49,.31,.26,.38,.86,.16,1.86-.15,.86-.47,1.41-.76,1.75-.54,.53-1.26,.82-2.16,.82h-3.42l-1.69,7.82c-.36,1.55-1.11,2.74-2.3,3.61-1.21,1.03-2.69,1.51-4.5,1.51s-3.37-.27-4.8-.88c-.78-.41-.99-1.25-.76-2.33l.08-.44c-.24,.06-.32,.06-.46,.06-.81,0-1.42-.12-1.72-.45-.28-.22-.41-.48-.39-.88-.3-1.08-.77-2.5-1.36-4.24-.08-.11,0-.27,.03-.44,.05-.26,.19-.6,.45-.97,.29-.45,.77-.82,1.45-1.08,.38-.18,.81-.29,1.22-.29,.99,0,1.65,.33,1.96,.88,.46,.49,.88,1.41,1.25,2.83,.24,.97,.37,1.75,.23,2.3v.04c.08,.05,.12,.05,.12,.05,.57,.33,1.17,.51,1.71,.51,.9,0,1.41-.33,1.53-1.04l1.42-6.58h-9.71c-.81,0-1.32-.22-1.6-.66-.39-.33-.47-.93-.25-1.9,.21-.93,.55-1.59,1.05-1.93,.41-.26,1.03-.42,1.83-.42h9.76Z" fill="#fff"/><path d="M204.31,39.36c.07,.11,.11,.18,.15,.18l1.66-7.62c.24-1.15,.76-2.03,1.64-2.67,.7-.66,1.62-1,2.83-1,1.13,0,1.92,.33,2.43,1,.51,.64,.72,1.52,.48,2.67l-1.39,6.36c.15-.06,.25-.11,.39-.15,.43-.18,.81-.29,1.22-.29,.99,0,1.65,.33,1.96,.88,.61,.93,1.15,2.72,1.66,5.43,.27,1.82,.38,3.23,.15,4.3-.18,.78-.51,1.37-.97,1.72-.68,.53-1.46,.84-2.36,.84-.95,0-1.6-.09-1.91-.35-.27-.22-.45-.49-.43-.88-.19-1.73-.46-3.75-.8-6.14l-6.64,30.57c-.21,.93-.66,1.72-1.22,2.34-.87,.89-1.99,1.33-3.29,1.33s-2.13-.44-2.57-1.24c-.43-.66-.51-1.51-.3-2.43l5.8-26.88c-2.11,5.09-3.63,8.36-4.53,9.91-.53,.97-1.56,1.46-3.14,1.46-.99,0-1.71-.27-2.14-.88-.52-.35-.65-1.1-.35-2.34,.07-.39,.28-1.05,.61-1.94,2.35-4.15,4.48-8.59,6.35-13.35,.53-.97,1.25-1.46,2.23-1.46,1.13,0,1.89,.22,2.49,.64Zm32.45-10.29c.6,.66,.81,1.52,.57,2.63l-.96,4.46h7.83c1.13,0,1.93,.26,2.39,.75,.51,.44,.66,1.37,.31,2.83-.26,1.26-.67,2.08-1.06,2.52-.82,.75-1.86,1.15-3.22,1.15h-14.08l-5.04,23.37c-.26,1.19,.19,1.72,1.36,1.72h12.55c1.89,0,2.58,1.19,2.07,3.58-.51,2.44-1.71,3.63-3.6,3.63h-15.34c-4.5,0-6.27-2.26-5.33-6.59l5.6-25.72h-1.13c-1.03,0-1.85-.29-2.33-.88-.55-.49-.69-1.41-.36-2.79,.29-1.41,.82-2.34,1.64-2.87,.52-.44,1.38-.7,2.64-.7h7.15l.96-4.46c.21-.93,.72-1.81,1.68-2.67,.67-.48,1.57-.77,2.92-.77,1.35,0,2.29,.29,2.78,.82Z" fill="#fff"/><path d="M18.32,54.92c.65-2.67,2.25-5.03,6.28-5.03s4.65,2.36,4,5.03l-3.74,17.87c-.63,2.72-2.26,5.07-6.25,5.07s-4.67-2.35-4.02-5.07l3.73-17.87Z" fill="#fff"/><path d="M55.09,36.73h-10.93c-3.32,0-5.63-1.68-5-4.78,.71-3.12,3.73-4.78,7.04-4.78h33.39c3.32,0,5.63,1.66,4.92,4.78-.63,3.1-3.65,4.78-6.96,4.78h-10.93l-7.67,35.47c-.76,3.36-3.53,5.66-7.04,5.66s-5.27-2.3-4.51-5.66l7.69-35.47Z" fill="#fff"/><path d="M31.17,32.68c0-5.83-6.32-10.55-14.14-10.55S2.92,26.84,2.92,32.68s6.32,10.55,14.11,10.55c.65,0,1.25-.06,1.85-.13l6.68,3.85v-5.88c3.38-1.94,5.61-4.96,5.61-8.38Z" fill="#fff"/></svg>