<?xml version="1.0" encoding="UTF-8"?><svg id="a" xmlns="http://www.w3.org/2000/svg" viewBox="0 0 250 100"><polygon points="9.99 41.87 4.79 74.68 20.72 74.68 25.92 41.87 9.99 41.87" fill="#fff"/><polygon points="12.98 24.58 28.91 24.58 26.42 38.42 10.49 38.42 12.98 24.58" fill="#fff"/><polygon points="32.86 24.6 68.43 24.6 66.04 39.73 56.78 39.29 51.2 74.44 34.27 74.44 39.86 39.29 30.47 39.73 32.86 24.6" fill="#fff"/><path d="M72.7,24.6h15.93l-2.21,13.82-2.17,9.07h.24c3.51-3.51,7-6.36,11.58-6.36,8.15,0,10.07,6.18,8.93,13.4l-3.19,20.14h-15.57l2.69-16.93c.26-1.73,.36-3.89-1.93-3.89-2.47,0-3.33,1.85-3.63,3.89l-2.69,16.93h-15.93l7.94-50.07Z" fill="#fff"/><path d="M121.92,58.43c-.42,2.59,1.26,4.51,3.73,4.51s4.75-1.91,5.16-4.51c.42-2.65-1.02-4.81-3.69-4.81-2.65,.02-4.77,2.17-5.2,4.81m24.3,.26c-1.73,10.87-12.28,16.73-22.53,16.73s-18.96-5.86-17.23-16.73c1.83-11.5,11.86-17.53,22.65-17.53s18.94,6.04,17.11,17.53" fill="#fff"/><path d="M165.07,47.69h.48c1.95-4.01,6.34-6.56,10.55-6.56,4.69,0,7.56,2.53,8.29,6.98h.36c2.59-4.57,5.98-6.98,11.05-6.98,7.84,0,10.33,6.06,9.23,13.16l-3.23,20.38h-15.45l2.57-16.25c.3-1.91,.7-4.39-1.67-4.39s-2.67,2.49-2.97,4.39l-2.57,16.25h-15.43l2.57-16.25c.3-1.91,.68-4.39-1.65-4.39s-2.69,2.49-2.99,4.39l-2.57,16.25h-15.45l5.2-32.8h15.07l-1.4,5.82Z" fill="#fff"/><path d="M230.05,54.17c.36-2.23-.92-4.25-3.21-4.25-2.41,0-3.89,1.97-4.25,4.25h7.46Zm-8.55,6.8c-.42,2.65-.46,5.64,2.87,5.64,1.67,0,3.09-1.18,3.65-2.73h15.51c-3.35,7.9-12.76,11.54-20.3,11.54-10.31,0-18.92-5.3-17.13-16.61,1.73-10.87,11.19-17.65,21.65-17.65,11.68,0,19.68,7.52,16.91,19.82,0,0-23.15,0-23.15,0Z" fill="#fff"/></svg>