<?xml version="1.0" encoding="UTF-8"?><svg id="a" xmlns="http://www.w3.org/2000/svg" xmlns:xlink="http://www.w3.org/1999/xlink" viewBox="0 0 250 100"><defs><clipPath id="b"><path d="M11.57,45.58c0,18.98,15.39,34.46,34.46,34.46v8.75s32.9-12.9,34.37-41.19v-1.94c0-18.98-15.39-34.46-34.46-34.46-18.98-.09-34.37,15.3-34.37,34.37" fill="none"/></clipPath><linearGradient id="c" x1="-1175.18" y1="584.75" x2="-1174.52" y2="584.75" gradientTransform="translate(122749.59 61122.5) scale(104.44 -104.44)" gradientUnits="userSpaceOnUse"><stop offset="0" stop-color="#4affb0"/><stop offset="1" stop-color="#457cff"/></linearGradient></defs><g clip-path="url(#b)"><rect x="11.57" y="11.11" width="68.83" height="77.59" fill="url(#c)"/></g><path d="M38.29,24.94l28.84,16.68c3.04,1.75,3.04,6.08,0,7.83l-28.84,16.68c-3.04,1.75-6.82-.46-6.82-3.96V28.9c0-3.5,3.78-5.71,6.82-3.96" fill="#fff"/><g><rect x="101.59" y="11.76" width="11.43" height="11.43" fill="#fff"/><polygon points="101.59 45.95 101.59 57.37 101.59 68.8 101.59 80.22 113.02 80.22 113.02 68.8 113.02 57.37 113.02 45.95 113.02 34.52 101.59 34.52 101.59 45.95" fill="#fff"/><polygon points="124.35 11.76 124.35 23.19 135.78 23.19 147.21 23.19 147.21 11.76 135.78 11.76 124.35 11.76" fill="#fff"/><polygon points="181.39 11.76 169.97 11.76 158.63 11.76 158.54 11.76 147.21 11.76 147.21 23.19 147.21 34.52 147.21 34.61 147.21 45.95 147.21 57.37 147.21 68.8 147.21 80.22 158.63 80.22 158.63 68.8 158.63 57.37 158.63 45.95 158.63 34.61 158.63 34.52 158.63 23.19 169.97 23.19 181.39 23.19 181.39 11.76" fill="#fff"/><polygon points="227.01 45.76 215.67 45.76 215.67 34.43 215.67 34.34 215.67 23 204.25 23 204.25 34.34 204.25 34.43 204.25 45.76 192.82 45.76 192.82 57.19 204.25 57.19 204.25 68.61 204.25 80.04 215.67 80.04 215.67 68.61 215.67 57.19 227.01 57.19 238.43 57.19 238.43 45.76 227.01 45.76" fill="#fff"/><rect x="181.39" y="45.76" width="11.43" height="11.43" fill="#fff"/></g></svg>